HIERARCHY
ROOT Hips
{
  OFFSET 196.326 95.9168 97.7182
  CHANNELS 6 Xposition Yposition Zposition Zrotation Xrotation Yrotation
  JOINT LeftUpLeg
  {
    OFFSET 8.64259 1.95398 -2.38835
    CHANNELS 3 Zrotation Xrotation Yrotation
    JOINT LeftLeg
    {
      OFFSET 43.7702 0 0
      CHANNELS 3 Zrotation Xrotation Yrotation
      JOINT LeftFoot
      {
        OFFSET 40.6238 0 0
        CHANNELS 3 Zrotation Xrotation Yrotation
        JOINT LeftToeBase
        {
          OFFSET 12.7242 0 0
          CHANNELS 3 Zrotation Xrotation Yrotation
          End Site
          {
            OFFSET 0 0 0
          }
        }
      }
    }
  }
  JOINT RightUpLeg
  {
    OFFSET -8.2249 1.95398 -2.59336
    CHANNELS 3 Zrotation Xrotation Yrotation
    JOINT RightLeg
    {
      OFFSET 43.5653 0 0
      CHANNELS 3 Zrotation Xrotation Yrotation
      JOINT RightFoot
      {
        OFFSET 40.6238 0 0
        CHANNELS 3 Zrotation Xrotation Yrotation
        JOINT RightToeBase
        {
          OFFSET 12.7242 0 0
          CHANNELS 3 Zrotation Xrotation Yrotation
          End Site
          {
            OFFSET 0 0 0
          }
        }
      }
    }
  }
  JOINT Spine
  {
    OFFSET 0.165834 0.87714 6.61349
    CHANNELS 3 Zrotation Xrotation Yrotation
    JOINT Spine1
    {
      OFFSET 7.38963 1.71661e-005 0
      CHANNELS 3 Zrotation Xrotation Yrotation
      JOINT Spine2
      {
        OFFSET 11.9445 1.14441e-005 0
        CHANNELS 3 Zrotation Xrotation Yrotation
        JOINT Spine3
        {
          OFFSET 14.7254 4.19617e-005 0
          CHANNELS 3 Zrotation Xrotation Yrotation
          JOINT Spine4
          {
            OFFSET 10.9679 0 0
            CHANNELS 3 Zrotation Xrotation Yrotation
            JOINT RightShoulder
            {
              OFFSET 2.46616 -1.6653 3.69651
              CHANNELS 3 Zrotation Xrotation Yrotation
              JOINT RightArm
              {
                OFFSET 13.0012 0 0
                CHANNELS 3 Zrotation Xrotation Yrotation
                JOINT RightForeArm
                {
                  OFFSET 28.7848 1.52588e-005 0
                  CHANNELS 3 Zrotation Xrotation Yrotation
                  JOINT RightHand
                  {
                    OFFSET 26.5688 1.52588e-005 0
                    CHANNELS 3 Zrotation Xrotation Yrotation
                    End Site
                    {
                      OFFSET 0 0 0
                    }
                  }
                }
              }
            }
            JOINT LeftShoulder
            {
              OFFSET 2.38034 -1.29275 -3.75231
              CHANNELS 3 Zrotation Xrotation Yrotation
              JOINT LeftArm
              {
                OFFSET 16.3182 6.10351e-005 0
                CHANNELS 3 Zrotation Xrotation Yrotation
                JOINT LeftForeArm
                {
                  OFFSET 27.0901 0 0
                  CHANNELS 3 Zrotation Xrotation Yrotation
                  JOINT LeftHand
                  {
                    OFFSET 24.5451 1.52588e-005 0
                    CHANNELS 3 Zrotation Xrotation Yrotation
                    End Site
                    {
                      OFFSET 0 0 0
                    }
                  }
                }
              }
            }
            JOINT Neck
            {
              OFFSET 5.0226 -0.0266342 0
              CHANNELS 3 Zrotation Xrotation Yrotation
              JOINT Head
              {
                OFFSET 6.69363 2.86102e-005 0
                CHANNELS 3 Zrotation Xrotation Yrotation
                End Site
                {
                  OFFSET 0 0 0
                }
              }
            }
          }
        }
      }
    }
  }
}
MOTION
Frames:	9
Frame Time:	0.0416667
31.2982 95.622 57.1938 88.4458 -10.3862 87.2217 -168.998 13.6329 98.4152 -23.974 5.72019 -0.55744 50.4971 -1.71359 9.417 39.7578 10.9875 -13.7243 174.829 15.3868 87.8118 -31.6934 25.2317 1.60106 67.261 -3.44049 -1.84527 40.7312 1.47355 17.3481 -0.159218 7.45173 -90.0859 11.9701 -0.357028 -0.132678 0.299223 -0.36251 -0.116843 -22.2362 -0.300651 -0.233845 -2.22353 -0.300641 -0.233848 81.1312 -51.6881 -113.583 17.0951 1.27266 14.3027 -13.8971 -9.69556 -52.1132 -10.8015 -0.70601 2.11029 -100.04 -41.2218 60.4191 -29.1525 -2.34707 13.6531 6.90236 1.29145 -40.4964 11.4679 0.75878 2.62291 1.02851 11.9798 -2.77365 2.94435 13.2244 11.4379 
31.1667 95.4663 57.3294 87.6708 -3.4968 86.8184 -170.412 14.9927 98.1542 -22.0527 10.8686 -0.161031 50.0505 -2.07343 9.26095 42.5166 13.0699 -16.2069 175.892 15.4394 87.393 -31.7052 20.7218 -0.241862 67.3271 -3.23612 -1.72428 42.2538 1.81582 17.2428 -0.082553 7.52959 -90.116 11.8144 -0.218671 -0.208113 0.143483 -0.227623 -0.198295 -22.3916 -0.146009 -0.26421 -2.37897 -0.146027 -0.264219 81.1175 -51.2044 -113.782 18.0587 0.587815 14.1706 -14.0857 -9.5319 -53.9409 -10.6777 -0.754082 2.76652 -99.979 -41.7134 60.7289 -28.8588 -2.1615 12.8679 7.06502 1.41854 -42.1865 11.8788 0.725896 2.15319 0.693476 22.9879 -1.69556 -0.0479832 23.8042 14.1741 
30.7545 95.3662 57.3839 86.5045 2.55488 86.6868 -171.483 17.5305 97.3794 -20.9489 13.2057 -0.0849184 49.9833 -2.06118 9.13491 42.8408 12.8062 -20.8333 176.979 15.3768 87.1732 -31.0237 18.0677 -1.86197 67.7531 -3.00726 -1.58528 44.212 2.30465 18.3626 -0.0399834 7.55337 -90.0745 11.7672 -0.114493 -0.136349 0.0962364 -0.120363 -0.131182 -22.4389 -0.0682182 -0.164455 -2.42626 -0.0682082 -0.164453 81.1766 -50.9331 -113.797 19.37 -0.0166969 13.4045 -13.9531 -9.14923 -54.6509 -9.44223 -0.670257 2.57279 -100.168 -41.7634 60.4544 -29.2136 -1.67336 11.9673 6.99181 1.70431 -41.5504 12.3907 0.851403 2.88873 -0.180663 28.0237 -0.671236 -1.60398 28.5476 15.8165 
30.0897 95.4669 57.0713 85.4944 6.7426 87.6858 -172.241 19.1603 96.7389 -19.6749 13.8801 0.034155 50.5747 -1.80099 7.91248 39.4147 10.4508 -16.8847 176.493 15.448 87.1288 -29.5993 20.692 -0.916087 67.8294 -2.85913 -1.51206 43.0149 2.02141 18.1179 0.115067 7.65027 -90.055 11.5734 0.203185 -0.130556 -0.0975065 0.19727 -0.139382 -22.6328 0.233023 -0.0634641 -2.62012 0.233041 -0.0634518 80.7773 -50.7993 -114.435 19.5726 -1.68643 11.2073 -15.4041 -10.0556 -55.1787 -9.95371 -0.721839 2.81508 -101.151 -42.0809 59.0602 -29.7366 -2.08474 12.3752 6.22247 0.513112 -40.5554 12.7573 0.877685 2.91089 0.298434 28.8035 0.113932 -1.7188 29.1827 15.7495 
29.3575 95.3879 56.274 84.2435 9.73333 89.0398 -172.69 21.1638 96.6566 -19.5906 15.7686 0.0118484 52.7283 -0.658113 7.44189 36.0884 7.82127 -14.5519 175.622 15.5539 87.2845 -27.9134 23.755 0.738309 68.1603 -3.07135 -1.63231 41.8643 1.79789 18.75 0.14973 7.7158 -90.1157 11.4426 0.243942 -0.255054 -0.228383 0.232476 -0.265549 -22.7636 0.309314 -0.169948 -2.75097 0.309322 -0.169948 81.318 -49.787 -114.02 19.9985 -4.37956 8.02299 -18.936 -12.3687 -57.8962 -9.62536 -0.67426 2.19059 -101.267 -42.2404 58.9512 -31.6568 -1.13615 13.3003 5.6689 0.406669 -39.1419 12.5268 0.704318 1.698 1.81307 28.3707 -0.205151 -1.2634 28.8232 16.1286 
28.8634 95.129 54.6757 82.6851 14.0982 90.7469 -171.693 23.0279 96.4289 -17.8773 17.5044 -1.01304 52.7773 -0.207426 9.63716 48.4376 17.2996 -19.5824 174.229 16.4227 86.7818 -28.3281 26.1484 2.56605 68.0192 -3.13468 -1.67505 42.2972 1.77332 16.5829 0.0706133 7.71496 -90.1191 11.4441 0.0849001 -0.24571 -0.226827 0.0739923 -0.249219 -22.7619 0.154822 -0.208834 -2.74923 0.154809 -0.208843 81.0269 -50.3587 -114.234 18.6822 -7.80372 5.68137 -22.1563 -12.7371 -61.9653 -10.6495 -0.685118 1.6543 -101.218 -42.2922 59.0512 -33.6467 0.398738 13.5179 5.09399 0.9507 -36.6679 11.8215 0.633227 1.43752 3.94701 27.3403 -1.85358 -0.919958 28.0804 16.709 
28.955 95.1516 52.2514 81.3046 20.1141 93.1058 -168.399 26.3573 96.2304 -18.4636 10.5333 -3.1131 56.4536 3.62002 13.609 49.5713 19.439 -13.693 173.497 15.2521 86.8058 -26.9772 30.6308 3.70066 66.7307 -3.25108 -1.76494 41.6952 1.478 13.3722 0.0718745 7.66532 -90.0648 11.5433 0.112691 -0.140635 -0.127694 0.1064 -0.145462 -22.6628 0.149749 -0.100265 -2.65021 0.149752 -0.100261 81.0813 -50.3429 -114.16 20.0857 -9.44457 5.47768 -23.6479 -11.5399 -65.5643 -14.0422 -0.956203 2.84687 -100.521 -42.1602 60.0752 -35.4084 1.78399 12.828 4.91302 2.26842 -34.747 12.0255 0.773706 2.47069 6.13919 25.41 -4.03805 -0.577242 26.5988 16.8275 
29.5058 95.1442 48.5033 80.6131 26.9101 96.1294 -165.085 30.5569 96.258 -23.9508 -8.70708 -4.64966 59.5408 4.67248 12.2069 42.2592 12.7289 -17.3521 173.476 10.3756 87.212 -21.926 37.7331 4.22913 63.3347 -3.57803 -2.00484 43.7676 1.86861 13.6151 0.146858 7.6178 -90.0744 11.6385 0.257388 -0.174961 -0.0324457 0.249434 -0.186124 -22.5678 0.298059 -0.089523 -2.55512 0.29808 -0.0895197 81.6572 -49.5878 -113.589 22.4712 -9.76293 6.88877 -24.3528 -10.384 -67.1234 -13.3923 -1.02032 3.90293 -100.342 -42.6115 60.5501 -36.8798 1.15054 12.8728 5.83139 3.31856 -34.4439 10.3257 0.632348 2.1199 7.26412 23.0035 -5.11097 0.19128 24.5286 16.2519 
30.3525 93.9739 42.759 80.0493 32.082 98.6831 -163.518 32.0981 94.5492 -28.8777 -9.34597 -5.65428 60.9537 7.48805 16.3207 35.4495 7.17457 -23.1609 172.704 6.78396 86.157 -21.1131 39.7792 4.44768 61.7046 -3.63716 -2.07581 47.3032 2.14996 10.7094 0.428105 7.51822 -89.9042 11.8377 0.896546 0.0953976 0.167069 0.899878 0.0558446 -22.3703 0.826401 0.360453 -2.3576 0.826421 0.360461 82.3662 -49.1852 -112.675 24.47 -9.65342 8.4637 -22.0104 -10.6034 -65.0895 -12.9605 -0.976713 3.71169 -99.5622 -42.2192 61.5986 -38.2492 1.45248 13.565 5.28212 2.58353 -34.6591 10.7656 0.665779 2.18853 9.43718 20.0958 -7.60746 0.0270853 22.1689 15.0571 
